<mxfile host="app.diagrams.net" agent="Mozilla/5.0 (Windows NT 10.0; Win64; x64) AppleWebKit/537.36 (KHTML, like Gecko) Chrome/128.0.0.0 Safari/537.36 Edg/128.0.0.0" version="24.7.14">
  <diagram id="R2lEEEUBdFMjLlhIrx00" name="Page-1">
    <mxGraphModel dx="300" dy="198" grid="1" gridSize="10" guides="1" tooltips="1" connect="1" arrows="1" fold="1" page="1" pageScale="1" pageWidth="850" pageHeight="1100" math="0" shadow="0" extFonts="Permanent Marker^https://fonts.googleapis.com/css?family=Permanent+Marker">
      <root>
        <mxCell id="0" />
        <mxCell id="1" parent="0" />
        <mxCell id="DgpeqAXAF7p9uYgMw4S4-1" value="&lt;font style=&quot;font-size: 12px;&quot;&gt;用户&lt;/font&gt;" style="rounded=0;whiteSpace=wrap;html=1;" vertex="1" parent="1">
          <mxGeometry x="400" y="350" width="40" height="20" as="geometry" />
        </mxCell>
        <mxCell id="DgpeqAXAF7p9uYgMw4S4-2" value="&lt;div style=&quot;text-align: justify;&quot;&gt;&lt;u style=&quot;font-size: 6px; background-color: initial;&quot;&gt;用户名&lt;/u&gt;&lt;/div&gt;" style="ellipse;whiteSpace=wrap;html=1;align=center;labelPosition=center;verticalLabelPosition=middle;verticalAlign=middle;spacingTop=0;spacingBottom=4;" vertex="1" parent="1">
          <mxGeometry x="320" y="240" width="30" height="20" as="geometry" />
        </mxCell>
        <mxCell id="DgpeqAXAF7p9uYgMw4S4-4" value="" style="endArrow=none;html=1;rounded=0;exitX=1;exitY=0.5;exitDx=0;exitDy=0;entryX=0;entryY=0.5;entryDx=0;entryDy=0;" edge="1" parent="1" source="DgpeqAXAF7p9uYgMw4S4-2" target="DgpeqAXAF7p9uYgMw4S4-1">
          <mxGeometry width="50" height="50" relative="1" as="geometry">
            <mxPoint x="390" y="360" as="sourcePoint" />
            <mxPoint x="440" y="310" as="targetPoint" />
          </mxGeometry>
        </mxCell>
        <mxCell id="DgpeqAXAF7p9uYgMw4S4-14" value="&lt;span style=&quot;font-size: 6px;&quot;&gt;密码&lt;/span&gt;" style="ellipse;whiteSpace=wrap;html=1;spacingBottom=3;" vertex="1" parent="1">
          <mxGeometry x="320" y="260" width="30" height="20" as="geometry" />
        </mxCell>
        <mxCell id="DgpeqAXAF7p9uYgMw4S4-15" value="" style="endArrow=none;html=1;rounded=0;exitX=1;exitY=0.5;exitDx=0;exitDy=0;entryX=-0.031;entryY=0.55;entryDx=0;entryDy=0;entryPerimeter=0;" edge="1" parent="1" source="DgpeqAXAF7p9uYgMw4S4-14" target="DgpeqAXAF7p9uYgMw4S4-1">
          <mxGeometry width="50" height="50" relative="1" as="geometry">
            <mxPoint x="470" y="450" as="sourcePoint" />
            <mxPoint x="480" y="380" as="targetPoint" />
          </mxGeometry>
        </mxCell>
        <mxCell id="DgpeqAXAF7p9uYgMw4S4-21" value="&lt;span style=&quot;font-size: 6px;&quot;&gt;电子邮件&lt;/span&gt;" style="ellipse;whiteSpace=wrap;html=1;spacingBottom=3;" vertex="1" parent="1">
          <mxGeometry x="320" y="340" width="30" height="20" as="geometry" />
        </mxCell>
        <mxCell id="DgpeqAXAF7p9uYgMw4S4-22" value="" style="endArrow=none;html=1;rounded=0;exitX=1;exitY=0.5;exitDx=0;exitDy=0;entryX=0;entryY=0.5;entryDx=0;entryDy=0;" edge="1" parent="1" source="DgpeqAXAF7p9uYgMw4S4-21" target="DgpeqAXAF7p9uYgMw4S4-1">
          <mxGeometry width="50" height="50" relative="1" as="geometry">
            <mxPoint x="530" y="490" as="sourcePoint" />
            <mxPoint x="459" y="331" as="targetPoint" />
          </mxGeometry>
        </mxCell>
        <mxCell id="DgpeqAXAF7p9uYgMw4S4-23" value="&lt;span style=&quot;font-size: 6px;&quot;&gt;状态&lt;/span&gt;" style="ellipse;whiteSpace=wrap;html=1;spacingBottom=3;" vertex="1" parent="1">
          <mxGeometry x="320" y="360" width="30" height="20" as="geometry" />
        </mxCell>
        <mxCell id="DgpeqAXAF7p9uYgMw4S4-24" value="" style="endArrow=none;html=1;rounded=0;exitX=1;exitY=0.5;exitDx=0;exitDy=0;entryX=-0.035;entryY=0.658;entryDx=0;entryDy=0;entryPerimeter=0;" edge="1" parent="1" source="DgpeqAXAF7p9uYgMw4S4-23" target="DgpeqAXAF7p9uYgMw4S4-1">
          <mxGeometry width="50" height="50" relative="1" as="geometry">
            <mxPoint x="500" y="500" as="sourcePoint" />
            <mxPoint x="429" y="341" as="targetPoint" />
          </mxGeometry>
        </mxCell>
        <mxCell id="DgpeqAXAF7p9uYgMw4S4-25" value="&lt;span style=&quot;font-size: 6px;&quot;&gt;生日&lt;/span&gt;" style="ellipse;whiteSpace=wrap;html=1;spacingBottom=3;" vertex="1" parent="1">
          <mxGeometry x="320" y="320" width="30" height="20" as="geometry" />
        </mxCell>
        <mxCell id="DgpeqAXAF7p9uYgMw4S4-26" value="" style="endArrow=none;html=1;rounded=0;exitX=1;exitY=0.5;exitDx=0;exitDy=0;entryX=-0.023;entryY=0.573;entryDx=0;entryDy=0;entryPerimeter=0;" edge="1" parent="1" source="DgpeqAXAF7p9uYgMw4S4-25" target="DgpeqAXAF7p9uYgMw4S4-1">
          <mxGeometry width="50" height="50" relative="1" as="geometry">
            <mxPoint x="470" y="500" as="sourcePoint" />
            <mxPoint x="399" y="341" as="targetPoint" />
          </mxGeometry>
        </mxCell>
        <mxCell id="DgpeqAXAF7p9uYgMw4S4-27" value="&lt;span style=&quot;font-size: 6px;&quot;&gt;性别&lt;/span&gt;" style="ellipse;whiteSpace=wrap;html=1;spacingBottom=3;" vertex="1" parent="1">
          <mxGeometry x="320" y="300" width="30" height="20" as="geometry" />
        </mxCell>
        <mxCell id="DgpeqAXAF7p9uYgMw4S4-28" value="" style="endArrow=none;html=1;rounded=0;exitX=1;exitY=0.5;exitDx=0;exitDy=0;entryX=0;entryY=0.5;entryDx=0;entryDy=0;" edge="1" parent="1" source="DgpeqAXAF7p9uYgMw4S4-27" target="DgpeqAXAF7p9uYgMw4S4-1">
          <mxGeometry width="50" height="50" relative="1" as="geometry">
            <mxPoint x="460" y="490" as="sourcePoint" />
            <mxPoint x="400" y="290" as="targetPoint" />
          </mxGeometry>
        </mxCell>
        <mxCell id="DgpeqAXAF7p9uYgMw4S4-29" value="&lt;span style=&quot;font-size: 6px;&quot;&gt;昵称&lt;/span&gt;" style="ellipse;whiteSpace=wrap;html=1;spacingBottom=3;" vertex="1" parent="1">
          <mxGeometry x="320" y="280" width="30" height="20" as="geometry" />
        </mxCell>
        <mxCell id="DgpeqAXAF7p9uYgMw4S4-30" value="" style="endArrow=none;html=1;rounded=0;exitX=1;exitY=0.5;exitDx=0;exitDy=0;entryX=0;entryY=0.5;entryDx=0;entryDy=0;" edge="1" parent="1" source="DgpeqAXAF7p9uYgMw4S4-29" target="DgpeqAXAF7p9uYgMw4S4-1">
          <mxGeometry width="50" height="50" relative="1" as="geometry">
            <mxPoint x="440" y="480" as="sourcePoint" />
            <mxPoint x="400" y="290" as="targetPoint" />
          </mxGeometry>
        </mxCell>
        <mxCell id="DgpeqAXAF7p9uYgMw4S4-31" value="&lt;span style=&quot;font-size: 6px;&quot;&gt;注册日期&lt;/span&gt;" style="ellipse;whiteSpace=wrap;html=1;spacingBottom=3;" vertex="1" parent="1">
          <mxGeometry x="320" y="379" width="30" height="20" as="geometry" />
        </mxCell>
        <mxCell id="DgpeqAXAF7p9uYgMw4S4-32" value="" style="endArrow=none;html=1;rounded=0;exitX=1;exitY=0.5;exitDx=0;exitDy=0;entryX=0;entryY=0.5;entryDx=0;entryDy=0;" edge="1" parent="1" source="DgpeqAXAF7p9uYgMw4S4-31" target="DgpeqAXAF7p9uYgMw4S4-1">
          <mxGeometry width="50" height="50" relative="1" as="geometry">
            <mxPoint x="460" y="529" as="sourcePoint" />
            <mxPoint x="389" y="370" as="targetPoint" />
          </mxGeometry>
        </mxCell>
        <mxCell id="DgpeqAXAF7p9uYgMw4S4-33" value="&lt;span style=&quot;font-size: 6px;&quot;&gt;备注信息&lt;/span&gt;" style="ellipse;whiteSpace=wrap;html=1;spacingBottom=3;" vertex="1" parent="1">
          <mxGeometry x="320" y="439" width="30" height="20" as="geometry" />
        </mxCell>
        <mxCell id="DgpeqAXAF7p9uYgMw4S4-34" value="" style="endArrow=none;html=1;rounded=0;exitX=1;exitY=0.5;exitDx=0;exitDy=0;entryX=0;entryY=0.5;entryDx=0;entryDy=0;" edge="1" parent="1" source="DgpeqAXAF7p9uYgMw4S4-33" target="DgpeqAXAF7p9uYgMw4S4-1">
          <mxGeometry width="50" height="50" relative="1" as="geometry">
            <mxPoint x="560" y="520" as="sourcePoint" />
            <mxPoint x="489" y="361" as="targetPoint" />
          </mxGeometry>
        </mxCell>
        <mxCell id="DgpeqAXAF7p9uYgMw4S4-35" value="&lt;span style=&quot;font-size: 6px;&quot;&gt;用户积分&lt;/span&gt;" style="ellipse;whiteSpace=wrap;html=1;spacingBottom=3;" vertex="1" parent="1">
          <mxGeometry x="320" y="419" width="30" height="20" as="geometry" />
        </mxCell>
        <mxCell id="DgpeqAXAF7p9uYgMw4S4-36" value="" style="endArrow=none;html=1;rounded=0;exitX=1;exitY=0.5;exitDx=0;exitDy=0;entryX=0;entryY=0.5;entryDx=0;entryDy=0;" edge="1" parent="1" source="DgpeqAXAF7p9uYgMw4S4-35" target="DgpeqAXAF7p9uYgMw4S4-1">
          <mxGeometry width="50" height="50" relative="1" as="geometry">
            <mxPoint x="560" y="500" as="sourcePoint" />
            <mxPoint x="489" y="341" as="targetPoint" />
          </mxGeometry>
        </mxCell>
        <mxCell id="DgpeqAXAF7p9uYgMw4S4-37" value="&lt;span style=&quot;font-size: 6px;&quot;&gt;用户等级&lt;/span&gt;" style="ellipse;whiteSpace=wrap;html=1;spacingBottom=3;" vertex="1" parent="1">
          <mxGeometry x="320" y="399" width="30" height="20" as="geometry" />
        </mxCell>
        <mxCell id="DgpeqAXAF7p9uYgMw4S4-38" value="" style="endArrow=none;html=1;rounded=0;exitX=1;exitY=0.5;exitDx=0;exitDy=0;entryX=0;entryY=0.5;entryDx=0;entryDy=0;" edge="1" parent="1" source="DgpeqAXAF7p9uYgMw4S4-37" target="DgpeqAXAF7p9uYgMw4S4-1">
          <mxGeometry width="50" height="50" relative="1" as="geometry">
            <mxPoint x="460" y="549" as="sourcePoint" />
            <mxPoint x="389" y="390" as="targetPoint" />
          </mxGeometry>
        </mxCell>
      </root>
    </mxGraphModel>
  </diagram>
</mxfile>
